
<svg width="101" height="34" viewBox="0 0 101 34" fill="none" xmlns="http://www.w3.org/2000/svg">
<path d="M13.2544 32H8C5.71821 32 3.65957 31.0447 2.20215 29.5122L23.729 13.1792L13.2544 32Z" fill="#E4332C"/>
<path d="M32 24C32 28.4183 28.4183 32 24 32H20.7402L32 11.7681V24Z" fill="#E4332C"/>
<path d="M0 20.5347V8C0 3.58172 3.58172 0 8 0H11.4287L0 20.5347Z" fill="#E4332C"/>
<path d="M24 0C26.219 0 28.2266 0.903728 29.6758 2.36279L8.79492 18.0732L18.853 0H24Z" fill="#E4332C"/>
<path d="M44 14.3145L46.5334 0.651807H49.0043L51.5377 14.3145H49.3952L48.8948 11.1602H46.6898L46.1737 14.3145H44ZM46.9244 9.5747H48.6446L47.7845 3.83976L46.9244 9.5747Z" fill="black"/>
<path d="M51.1539 14.3145V12.5265C51.4458 12.5378 51.6908 12.5209 51.8889 12.4759C52.0974 12.4197 52.2695 12.3016 52.405 12.1217C52.5509 11.9418 52.6708 11.6663 52.7647 11.2952C52.8585 10.9129 52.9367 10.4012 52.9992 9.76024C53.0618 9.11928 53.1296 8.30402 53.2025 7.31446L53.6091 0.651807H59.7706V14.3145H57.4718V2.5241H55.6578L55.3763 7.61807C55.3137 8.61888 55.2407 9.50161 55.1573 10.2663C55.0844 11.0309 54.9645 11.6831 54.7977 12.2229C54.6413 12.7514 54.4171 13.1787 54.1252 13.5048C53.8333 13.8309 53.4475 14.0614 52.968 14.1964C52.4884 14.3201 51.8837 14.3594 51.1539 14.3145Z" fill="black"/>
<path d="M60.9453 14.3145V0.651807H64.6673C65.4283 0.651807 66.0434 0.803615 66.5126 1.10723C66.9922 1.41084 67.3414 1.85502 67.5604 2.43976C67.7897 3.01325 67.9044 3.71044 67.9044 4.53133C67.9044 5.41968 67.7637 6.13936 67.4822 6.69036C67.2007 7.23012 66.8045 7.62369 66.2937 7.87108C65.7932 8.11847 65.199 8.24217 64.5109 8.24217H63.2598V14.3145H60.9453ZM63.2598 6.48795H64.1356C64.5526 6.48795 64.8758 6.4261 65.1051 6.30241C65.3449 6.16747 65.5065 5.95944 65.5899 5.67831C65.6838 5.38594 65.7307 4.99799 65.7307 4.51446C65.7307 4.01968 65.6942 3.62048 65.6212 3.31687C65.5586 3.00201 65.4127 2.77149 65.1833 2.6253C64.9644 2.47912 64.6151 2.40602 64.1356 2.40602H63.2598V6.48795Z" fill="black"/>
<path d="M71.8506 14.5C70.954 14.5 70.2399 14.3201 69.7082 13.9602C69.1765 13.6004 68.7959 13.0831 68.5666 12.4084C68.3372 11.7337 68.2225 10.9353 68.2225 10.0133V4.90241C68.2225 3.98032 68.3372 3.19317 68.5666 2.54096C68.7959 1.87751 69.1765 1.37149 69.7082 1.02289C70.2399 0.674297 70.954 0.5 71.8506 0.5C72.7681 0.5 73.4874 0.674297 74.0087 1.02289C74.5404 1.37149 74.921 1.87751 75.1503 2.54096C75.3901 3.19317 75.51 3.98032 75.51 4.90241V10.0301C75.51 10.941 75.3901 11.7337 75.1503 12.4084C74.921 13.0719 74.5404 13.5892 74.0087 13.9602C73.4874 14.3201 72.7681 14.5 71.8506 14.5ZM71.8506 12.6614C72.2364 12.6614 72.5179 12.5715 72.6951 12.3916C72.8828 12.2116 73.0079 11.9643 73.0704 11.6494C73.133 11.3345 73.1642 10.9916 73.1642 10.6205V4.32892C73.1642 3.94659 73.133 3.60361 73.0704 3.3C73.0079 2.99639 72.8828 2.76024 72.6951 2.59157C72.5179 2.41165 72.2364 2.32169 71.8506 2.32169C71.4857 2.32169 71.2095 2.41165 71.0218 2.59157C70.8341 2.76024 70.709 2.99639 70.6465 3.3C70.5839 3.60361 70.5526 3.94659 70.5526 4.32892V10.6205C70.5526 10.9916 70.5787 11.3345 70.6308 11.6494C70.6934 11.9643 70.8185 12.2116 71.0062 12.3916C71.1938 12.5715 71.4753 12.6614 71.8506 12.6614Z" fill="black"/>
<path d="M79.8493 14.5C78.9214 14.5 78.1916 14.3032 77.6599 13.9096C77.1386 13.5161 76.7737 12.9819 76.5652 12.3072C76.3567 11.6213 76.2525 10.8341 76.2525 9.94578V5.07108C76.2525 4.13775 76.3567 3.32811 76.5652 2.64217C76.7737 1.95623 77.1386 1.42771 77.6599 1.05663C78.1916 0.685542 78.9214 0.5 79.8493 0.5C80.725 0.5 81.4079 0.663052 81.8979 0.989157C82.3983 1.30402 82.7528 1.75944 82.9613 2.35542C83.1698 2.95141 83.2741 3.64297 83.2741 4.43012V5.57711H81.0534V4.39639C81.0534 4.01406 81.0326 3.66546 80.9909 3.3506C80.9596 3.03574 80.8605 2.78835 80.6937 2.60843C80.5374 2.41727 80.2611 2.32169 79.8649 2.32169C79.4687 2.32169 79.1768 2.42289 78.9892 2.6253C78.8119 2.81647 78.6972 3.08072 78.6451 3.41807C78.593 3.74418 78.5669 4.11526 78.5669 4.53133V10.4687C78.5669 10.9635 78.6034 11.3739 78.6764 11.7C78.7494 12.0149 78.8797 12.2566 79.0674 12.4253C79.2654 12.5827 79.5313 12.6614 79.8649 12.6614C80.2507 12.6614 80.5217 12.5659 80.6781 12.3747C80.8449 12.1723 80.9492 11.908 80.9909 11.5819C81.0326 11.2558 81.0534 10.8904 81.0534 10.4855V9.25422H83.2741V10.3506C83.2741 11.1602 83.175 11.8799 82.9769 12.5096C82.7788 13.1281 82.4296 13.6173 81.9292 13.9771C81.4392 14.3257 80.7459 14.5 79.8493 14.5Z" fill="black"/>
<path d="M83.4623 14.3145L85.9957 0.651807H88.4666L91 14.3145H88.8575L88.3571 11.1602H86.1521L85.6361 14.3145H83.4623ZM86.3867 9.5747H88.1069L87.2468 3.83976L86.3867 9.5747Z" fill="black"/>
<path d="M44 31.0871V18.6383H45.902V26.4918L49.3916 18.6383H50.9477V31.0871H49.03V23.1107L45.5247 31.0871H44Z" fill="black"/>
<path d="M52.0852 31.0871L52.3052 18.6383H54.7102L56.5179 27.2602L58.4041 18.6383H60.7305L60.9663 31.0871H59.2373L59.0486 22.4344L57.241 31.0871H55.842L54.0029 22.4037L53.83 31.0871H52.0852Z" fill="black"/>
<path d="M62.0606 31.0871V18.6383H69.4014V31.0871H67.1064V20.252H64.3556V31.0871H62.0606Z" fill="black"/>
<path d="M70.4053 33.4385V31.8094C70.552 31.8197 70.6882 31.8299 70.814 31.8402C70.9397 31.8504 71.0602 31.8555 71.1755 31.8555C71.406 31.8555 71.6104 31.8299 71.7885 31.7787C71.9772 31.7275 72.1344 31.6455 72.2601 31.5328C72.3963 31.4303 72.4959 31.3023 72.5588 31.1486C72.6321 30.9949 72.6688 30.8156 72.6688 30.6107C72.6688 30.4672 72.6583 30.3289 72.6374 30.1957C72.6269 30.0625 72.6112 29.9191 72.5902 29.7654L69.9023 18.6383H72.0558L73.1404 23.8484L73.722 27.4754L74.1935 23.8484L75.1367 18.6383H77.3216L74.9323 29.6117C74.7751 30.3494 74.6022 30.9641 74.4136 31.4559C74.2354 31.958 74.0154 32.3576 73.7534 32.6547C73.5019 32.9518 73.1875 33.167 72.8103 33.3002C72.4435 33.4334 71.9876 33.5 71.4427 33.5C71.317 33.5 71.165 33.4898 70.9869 33.4693C70.8087 33.459 70.6149 33.4488 70.4053 33.4385Z" fill="black"/>
<path d="M76.801 31.0871V29.458C77.0944 29.4682 77.3407 29.4529 77.5398 29.4119C77.7494 29.3607 77.9223 29.2531 78.0585 29.0891C78.2052 28.9252 78.3258 28.6742 78.4201 28.3361C78.5144 27.9877 78.593 27.5215 78.6558 26.9375C78.7187 26.3535 78.7868 25.6107 78.8602 24.709L79.2689 18.6383H85.4621V31.0871H83.1514V20.3443H81.3281L81.0451 24.9857C80.9822 25.8975 80.9089 26.7018 80.8251 27.3986C80.7517 28.0953 80.6312 28.6895 80.4635 29.1814C80.3063 29.6629 80.081 30.0523 79.7876 30.3494C79.4942 30.6465 79.1065 30.8566 78.6244 30.9795C78.1424 31.0922 77.5346 31.1281 76.801 31.0871Z" fill="black"/>
<path d="M86.6743 31.0871V18.6383H88.985V23.8637H89.5509C90.4102 23.8637 91.128 23.9816 91.7044 24.2172C92.2807 24.4426 92.7156 24.8217 93.009 25.3545C93.3025 25.8771 93.4492 26.584 93.4492 27.4754C93.4492 28.1721 93.3601 28.7562 93.1819 29.2275C93.0038 29.6885 92.7366 30.0574 92.3803 30.334C92.0345 30.6107 91.6153 30.8053 91.1228 30.918C90.6302 31.0307 90.0748 31.0871 89.4566 31.0871H86.6743ZM88.985 29.5502H89.4566C89.9072 29.5502 90.2635 29.4887 90.5255 29.3658C90.7979 29.2428 90.997 29.0277 91.1228 28.7203C91.2485 28.4027 91.3114 27.9723 91.3114 27.4293C91.3009 26.7838 91.1647 26.292 90.9027 25.9539C90.6512 25.6158 90.1587 25.4467 89.4251 25.4467H88.985V29.5502Z" fill="black"/>
<path d="M97.5576 31.2561C96.6249 31.2561 95.8914 31.0768 95.3569 30.7182C94.833 30.3596 94.4662 29.873 94.2566 29.2582C94.047 28.6332 93.9422 27.916 93.9422 27.1066V22.665C93.9422 21.8145 94.047 21.0768 94.2566 20.4518C94.4662 19.8268 94.833 19.3453 95.3569 19.0072C95.8914 18.6691 96.6249 18.5 97.5576 18.5C98.4378 18.5 99.1242 18.6486 99.6167 18.9457C100.12 19.2326 100.476 19.6475 100.686 20.1906C100.895 20.7336 101 21.3637 101 22.0809V23.126H98.7679V22.0502C98.7679 21.7018 98.747 21.3842 98.705 21.0973C98.6736 20.8105 98.574 20.585 98.4064 20.4211C98.2492 20.2469 97.9715 20.1598 97.5733 20.1598C97.1751 20.1598 96.8816 20.252 96.693 20.4365C96.5149 20.6107 96.3996 20.8514 96.3472 21.1588C96.2948 21.4559 96.2686 21.7941 96.2686 22.1732V27.583C96.2686 28.0338 96.3053 28.4078 96.3786 28.7049C96.452 28.9918 96.583 29.2121 96.7716 29.3658C96.9707 29.5092 97.2379 29.5809 97.5733 29.5809C97.961 29.5809 98.2335 29.4939 98.3907 29.3197C98.5583 29.1352 98.6631 28.8945 98.705 28.5973C98.747 28.3002 98.7679 27.9672 98.7679 27.5984V26.4764H101V27.4754C101 28.2131 100.9 28.8689 100.701 29.4426C100.502 30.0062 100.151 30.4518 99.6482 30.7797C99.1556 31.0973 98.4588 31.2561 97.5576 31.2561Z" fill="black"/>
</svg>
